<svg width="360" height="272" viewBox="0 0 360 272" fill="none" xmlns="http://www.w3.org/2000/svg">
<g clip-path="url(#clip0_554_2648)">
<rect width="360" height="272" fill="#A0BAFF"/>
<rect x="2.15234" y="141.307" width="3.44335" height="3.43576" fill="#C3D4FF"/>
<rect x="2.15234" y="134.436" width="3.44335" height="3.43576" fill="#C3D4FF"/>
<rect x="9.03882" y="141.307" width="3.44335" height="3.43576" fill="#C3D4FF"/>
<rect x="9.03857" y="134.436" width="3.44335" height="3.43576" fill="#C3D4FF"/>
<rect x="15.9246" y="141.307" width="3.44335" height="3.43576" fill="#C3D4FF"/>
<rect x="15.9246" y="134.436" width="3.44335" height="3.43576" fill="#C3D4FF"/>
<rect x="22.8108" y="141.307" width="3.44335" height="3.43576" fill="#C3D4FF"/>
<rect x="22.8108" y="134.436" width="3.44335" height="3.43576" fill="#C3D4FF"/>
<rect x="29.6973" y="141.307" width="3.44335" height="3.43576" fill="#C3D4FF"/>
<rect x="29.6973" y="134.436" width="3.44335" height="3.43576" fill="#C3D4FF"/>
<rect x="36.583" y="141.307" width="3.44335" height="3.43576" fill="#C3D4FF"/>
<rect x="36.583" y="134.436" width="3.44335" height="3.43576" fill="#C3D4FF"/>
<rect x="43.4692" y="141.307" width="3.44335" height="3.43576" fill="#C3D4FF"/>
<rect x="43.4692" y="134.436" width="3.44335" height="3.43576" fill="#C3D4FF"/>
<rect x="50.355" y="141.307" width="3.44335" height="3.43576" fill="#C3D4FF"/>
<rect x="50.355" y="134.436" width="3.44335" height="3.43576" fill="#C3D4FF"/>
<rect x="57.2415" y="141.307" width="3.44335" height="3.43576" fill="#C3D4FF"/>
<rect x="57.2415" y="134.436" width="3.44335" height="3.43576" fill="#C3D4FF"/>
<rect x="64.1279" y="141.307" width="3.44335" height="3.43576" fill="#C3D4FF"/>
<rect x="64.1279" y="134.436" width="3.44335" height="3.43576" fill="#C3D4FF"/>
<rect x="71.0137" y="141.307" width="3.44335" height="3.43576" fill="#C3D4FF"/>
<rect x="71.0137" y="134.436" width="3.44335" height="3.43576" fill="#C3D4FF"/>
<rect x="77.8999" y="141.307" width="3.44335" height="3.43576" fill="#C3D4FF"/>
<rect x="77.8999" y="134.436" width="3.44335" height="3.43576" fill="#C3D4FF"/>
<rect x="84.7856" y="141.307" width="3.44335" height="3.43576" fill="#C3D4FF"/>
<rect x="84.7856" y="134.436" width="3.44335" height="3.43576" fill="#C3D4FF"/>
<rect x="91.6721" y="141.307" width="3.44335" height="3.43576" fill="#C3D4FF"/>
<rect x="91.6719" y="134.436" width="3.44335" height="3.43576" fill="#C3D4FF"/>
<rect x="98.5579" y="141.307" width="3.44335" height="3.43576" fill="#C3D4FF"/>
<rect x="98.5579" y="134.436" width="3.44335" height="3.43576" fill="#C3D4FF"/>
<rect x="105.444" y="141.307" width="3.44335" height="3.43576" fill="#C3D4FF"/>
<rect x="105.444" y="134.436" width="3.44335" height="3.43576" fill="#C3D4FF"/>
<rect x="112.331" y="141.307" width="3.44335" height="3.43576" fill="#C3D4FF"/>
<rect x="112.331" y="134.436" width="3.44335" height="3.43576" fill="#C3D4FF"/>
<rect x="119.216" y="141.307" width="3.44335" height="3.43576" fill="#C3D4FF"/>
<rect x="119.216" y="134.436" width="3.44335" height="3.43576" fill="#C3D4FF"/>
<rect x="126.103" y="141.307" width="3.44335" height="3.43576" fill="#C3D4FF"/>
<rect x="126.103" y="134.436" width="3.44335" height="3.43576" fill="#C3D4FF"/>
<rect x="132.988" y="141.307" width="3.44335" height="3.43576" fill="#C3D4FF"/>
<rect x="132.988" y="134.436" width="3.44335" height="3.43576" fill="#C3D4FF"/>
<rect x="139.875" y="141.307" width="3.44335" height="3.43576" fill="#C3D4FF"/>
<rect x="139.875" y="134.436" width="3.44335" height="3.43576" fill="#C3D4FF"/>
<rect x="146.761" y="141.307" width="3.44335" height="3.43576" fill="#C3D4FF"/>
<rect x="146.761" y="134.436" width="3.44335" height="3.43576" fill="#C3D4FF"/>
<rect x="153.647" y="141.307" width="3.44335" height="3.43576" fill="#C3D4FF"/>
<rect x="153.647" y="134.436" width="3.44335" height="3.43576" fill="#C3D4FF"/>
<rect x="160.533" y="141.307" width="3.44335" height="3.43576" fill="#C3D4FF"/>
<rect x="160.533" y="134.436" width="3.44335" height="3.43576" fill="#C3D4FF"/>
<rect x="167.419" y="141.307" width="3.44335" height="3.43576" fill="#C3D4FF"/>
<rect x="167.419" y="134.436" width="3.44335" height="3.43576" fill="#C3D4FF"/>
<rect x="174.305" y="141.307" width="3.44335" height="3.43576" fill="#C3D4FF"/>
<rect x="174.305" y="134.436" width="3.44335" height="3.43576" fill="#C3D4FF"/>
<rect x="181.191" y="141.307" width="3.44335" height="3.43576" fill="#C3D4FF"/>
<rect x="181.191" y="134.436" width="3.44335" height="3.43576" fill="#C3D4FF"/>
<rect x="188.078" y="141.307" width="3.44335" height="3.43576" fill="#C3D4FF"/>
<rect x="188.078" y="134.436" width="3.44335" height="3.43576" fill="#C3D4FF"/>
<rect x="194.964" y="141.307" width="3.44335" height="3.43576" fill="#C3D4FF"/>
<rect x="194.964" y="134.436" width="3.44335" height="3.43576" fill="#C3D4FF"/>
<rect x="201.85" y="141.307" width="3.44335" height="3.43576" fill="#C3D4FF"/>
<rect x="201.85" y="134.436" width="3.44335" height="3.43576" fill="#C3D4FF"/>
<rect x="208.736" y="141.307" width="3.44335" height="3.43576" fill="#C3D4FF"/>
<rect x="208.736" y="134.436" width="3.44335" height="3.43576" fill="#C3D4FF"/>
<rect x="215.622" y="141.307" width="3.44335" height="3.43576" fill="#C3D4FF"/>
<rect x="215.622" y="134.436" width="3.44335" height="3.43576" fill="#C3D4FF"/>
<rect x="222.508" y="141.307" width="3.44335" height="3.43576" fill="#C3D4FF"/>
<rect x="222.508" y="134.436" width="3.44335" height="3.43576" fill="#C3D4FF"/>
<rect x="229.395" y="141.307" width="3.44335" height="3.43576" fill="#C3D4FF"/>
<rect x="229.395" y="134.436" width="3.44335" height="3.43576" fill="#C3D4FF"/>
<rect x="236.28" y="141.307" width="3.44335" height="3.43576" fill="#C3D4FF"/>
<rect x="236.28" y="134.436" width="3.44335" height="3.43576" fill="#C3D4FF"/>
<rect x="243.167" y="141.307" width="3.44335" height="3.43576" fill="#C3D4FF"/>
<rect x="243.167" y="134.436" width="3.44335" height="3.43576" fill="#C3D4FF"/>
<rect x="250.052" y="141.307" width="3.44335" height="3.43576" fill="#C3D4FF"/>
<rect x="250.052" y="134.436" width="3.44335" height="3.43576" fill="#C3D4FF"/>
<rect x="256.939" y="141.307" width="3.44335" height="3.43576" fill="#C3D4FF"/>
<rect x="256.938" y="134.436" width="3.44335" height="3.43576" fill="#C3D4FF"/>
<rect x="5.5957" y="144.743" width="3.44335" height="3.43576" fill="#C3D4FF"/>
<rect x="5.59546" y="137.872" width="3.44335" height="3.43576" fill="#C3D4FF"/>
<rect x="5.5957" y="131" width="3.44335" height="3.43576" fill="#C3D4FF"/>
<rect x="12.4819" y="144.743" width="3.44335" height="3.43576" fill="#C3D4FF"/>
<rect x="12.4819" y="137.872" width="3.44335" height="3.43576" fill="#C3D4FF"/>
<rect x="9.03857" y="148.179" width="10.3292" height="3.43576" fill="#C3D4FF"/>
<rect x="19.3677" y="144.743" width="3.44335" height="3.43576" fill="#C3D4FF"/>
<rect x="19.3677" y="137.872" width="3.44335" height="3.43576" fill="#C3D4FF"/>
<rect x="19.3677" y="131" width="3.44335" height="3.43576" fill="#C3D4FF"/>
<rect x="-1.29004" y="144.743" width="3.44335" height="3.43576" fill="#C3D4FF"/>
<rect x="-1.29004" y="137.872" width="3.44335" height="3.43576" fill="#C3D4FF"/>
<rect x="-4.7334" y="148.179" width="10.3292" height="3.43576" fill="#C3D4FF"/>
<rect x="33.1396" y="144.743" width="3.44335" height="3.43576" fill="#C3D4FF"/>
<rect x="33.1396" y="137.872" width="3.44335" height="3.43576" fill="#C3D4FF"/>
<rect x="33.1399" y="131" width="3.44335" height="3.43576" fill="#C3D4FF"/>
<rect x="40.0261" y="144.743" width="3.44335" height="3.43576" fill="#C3D4FF"/>
<rect x="40.0261" y="137.872" width="3.44335" height="3.43576" fill="#C3D4FF"/>
<rect x="36.583" y="148.179" width="10.3292" height="3.43576" fill="#C3D4FF"/>
<rect x="46.9126" y="144.743" width="3.44335" height="3.43576" fill="#C3D4FF"/>
<rect x="46.9126" y="137.872" width="3.44335" height="3.43576" fill="#C3D4FF"/>
<rect x="46.9126" y="131" width="3.44335" height="3.43576" fill="#C3D4FF"/>
<rect x="26.2539" y="144.743" width="3.44335" height="3.43576" fill="#C3D4FF"/>
<rect x="26.2542" y="137.872" width="3.44335" height="3.43576" fill="#C3D4FF"/>
<rect x="22.8108" y="148.179" width="10.3292" height="3.43576" fill="#C3D4FF"/>
<rect x="60.6846" y="144.743" width="3.44335" height="3.43576" fill="#C3D4FF"/>
<rect x="60.6846" y="137.872" width="3.44335" height="3.43576" fill="#C3D4FF"/>
<rect x="60.6846" y="131" width="3.44335" height="3.43576" fill="#C3D4FF"/>
<rect x="170.862" y="144.743" width="3.44335" height="3.43576" fill="#C3D4FF"/>
<rect x="170.862" y="137.872" width="3.44335" height="3.43576" fill="#C3D4FF"/>
<rect x="170.862" y="131" width="3.44335" height="3.43576" fill="#C3D4FF"/>
<rect x="67.5703" y="144.743" width="3.44335" height="3.43576" fill="#C3D4FF"/>
<rect x="67.5703" y="137.872" width="3.44335" height="3.43576" fill="#C3D4FF"/>
<rect x="177.749" y="144.743" width="3.44335" height="3.43576" fill="#C3D4FF"/>
<rect x="177.749" y="137.872" width="3.44335" height="3.43576" fill="#C3D4FF"/>
<rect x="64.1279" y="148.179" width="10.3292" height="3.43576" fill="#C3D4FF"/>
<rect x="174.305" y="148.179" width="10.3292" height="3.43576" fill="#C3D4FF"/>
<rect x="74.4568" y="144.743" width="3.44335" height="3.43576" fill="#C3D4FF"/>
<rect x="74.4568" y="137.872" width="3.44335" height="3.43576" fill="#C3D4FF"/>
<rect x="74.4568" y="131" width="3.44335" height="3.43576" fill="#C3D4FF"/>
<rect x="184.635" y="144.743" width="3.44335" height="3.43576" fill="#C3D4FF"/>
<rect x="184.634" y="137.872" width="3.44335" height="3.43576" fill="#C3D4FF"/>
<rect x="184.635" y="131" width="3.44335" height="3.43576" fill="#C3D4FF"/>
<rect x="53.7983" y="144.743" width="3.44335" height="3.43576" fill="#C3D4FF"/>
<rect x="53.7983" y="137.872" width="3.44335" height="3.43576" fill="#C3D4FF"/>
<rect x="163.976" y="144.743" width="3.44335" height="3.43576" fill="#C3D4FF"/>
<rect x="163.976" y="137.872" width="3.44335" height="3.43576" fill="#C3D4FF"/>
<rect x="50.355" y="148.179" width="10.3292" height="3.43576" fill="#C3D4FF"/>
<rect x="160.533" y="148.179" width="10.3292" height="3.43576" fill="#C3D4FF"/>
<rect x="88.229" y="144.743" width="3.44335" height="3.43576" fill="#C3D4FF"/>
<rect x="88.229" y="137.872" width="3.44335" height="3.43576" fill="#C3D4FF"/>
<rect x="88.229" y="131" width="3.44335" height="3.43576" fill="#C3D4FF"/>
<rect x="198.406" y="144.743" width="3.44335" height="3.43576" fill="#C3D4FF"/>
<rect x="198.406" y="137.872" width="3.44335" height="3.43576" fill="#C3D4FF"/>
<rect x="198.406" y="131" width="3.44335" height="3.43576" fill="#C3D4FF"/>
<rect x="95.1152" y="144.743" width="3.44335" height="3.43576" fill="#C3D4FF"/>
<rect x="95.1152" y="137.872" width="3.44335" height="3.43576" fill="#C3D4FF"/>
<rect x="205.293" y="144.743" width="3.44335" height="3.43576" fill="#C3D4FF"/>
<rect x="205.293" y="137.872" width="3.44335" height="3.43576" fill="#C3D4FF"/>
<rect x="91.6719" y="148.179" width="10.3292" height="3.43576" fill="#C3D4FF"/>
<rect x="201.85" y="148.179" width="10.3292" height="3.43576" fill="#C3D4FF"/>
<rect x="102.001" y="144.743" width="3.44335" height="3.43576" fill="#C3D4FF"/>
<rect x="102.001" y="137.872" width="3.44335" height="3.43576" fill="#C3D4FF"/>
<rect x="102.001" y="131" width="3.44335" height="3.43576" fill="#C3D4FF"/>
<rect x="212.179" y="144.743" width="3.44335" height="3.43576" fill="#C3D4FF"/>
<rect x="212.179" y="137.872" width="3.44335" height="3.43576" fill="#C3D4FF"/>
<rect x="212.179" y="131" width="3.44335" height="3.43576" fill="#C3D4FF"/>
<rect x="81.3433" y="144.743" width="3.44335" height="3.43576" fill="#C3D4FF"/>
<rect x="81.3433" y="137.872" width="3.44335" height="3.43576" fill="#C3D4FF"/>
<rect x="191.521" y="144.743" width="3.44335" height="3.43576" fill="#C3D4FF"/>
<rect x="191.521" y="137.872" width="3.44335" height="3.43576" fill="#C3D4FF"/>
<rect x="77.8999" y="148.179" width="10.3292" height="3.43576" fill="#C3D4FF"/>
<rect x="188.078" y="148.179" width="10.3292" height="3.43576" fill="#C3D4FF"/>
<rect x="115.773" y="144.743" width="3.44335" height="3.43576" fill="#C3D4FF"/>
<rect x="115.773" y="137.872" width="3.44335" height="3.43576" fill="#C3D4FF"/>
<rect x="115.773" y="131" width="3.44335" height="3.43576" fill="#C3D4FF"/>
<rect x="225.951" y="144.743" width="3.44335" height="3.43576" fill="#C3D4FF"/>
<rect x="225.951" y="137.872" width="3.44335" height="3.43576" fill="#C3D4FF"/>
<rect x="225.951" y="131" width="3.44335" height="3.43576" fill="#C3D4FF"/>
<rect x="122.659" y="144.743" width="3.44335" height="3.43576" fill="#C3D4FF"/>
<rect x="122.659" y="137.872" width="3.44335" height="3.43576" fill="#C3D4FF"/>
<rect x="232.837" y="144.743" width="3.44335" height="3.43576" fill="#C3D4FF"/>
<rect x="232.837" y="137.872" width="3.44335" height="3.43576" fill="#C3D4FF"/>
<rect x="119.216" y="148.179" width="10.3292" height="3.43576" fill="#C3D4FF"/>
<rect x="229.395" y="148.179" width="10.3292" height="3.43576" fill="#C3D4FF"/>
<rect x="129.546" y="144.743" width="3.44335" height="3.43576" fill="#C3D4FF"/>
<rect x="129.546" y="137.872" width="3.44335" height="3.43576" fill="#C3D4FF"/>
<rect x="129.546" y="131" width="3.44335" height="3.43576" fill="#C3D4FF"/>
<rect x="239.723" y="144.743" width="3.44335" height="3.43576" fill="#C3D4FF"/>
<rect x="239.723" y="137.872" width="3.44335" height="3.43576" fill="#C3D4FF"/>
<rect x="239.723" y="131" width="3.44335" height="3.43576" fill="#C3D4FF"/>
<rect x="108.887" y="144.743" width="3.44335" height="3.43576" fill="#C3D4FF"/>
<rect x="108.887" y="137.872" width="3.44335" height="3.43576" fill="#C3D4FF"/>
<rect x="219.065" y="144.743" width="3.44335" height="3.43576" fill="#C3D4FF"/>
<rect x="219.065" y="137.872" width="3.44335" height="3.43576" fill="#C3D4FF"/>
<rect x="105.444" y="148.179" width="10.3292" height="3.43576" fill="#C3D4FF"/>
<rect x="215.622" y="148.179" width="10.3292" height="3.43576" fill="#C3D4FF"/>
<rect x="143.318" y="144.743" width="3.44335" height="3.43576" fill="#C3D4FF"/>
<rect x="143.318" y="137.872" width="3.44335" height="3.43576" fill="#C3D4FF"/>
<rect x="143.318" y="131" width="3.44335" height="3.43576" fill="#C3D4FF"/>
<rect x="253.496" y="144.743" width="3.44335" height="3.43576" fill="#C3D4FF"/>
<rect x="253.496" y="137.872" width="3.44335" height="3.43576" fill="#C3D4FF"/>
<rect x="253.496" y="131" width="3.44335" height="3.43576" fill="#C3D4FF"/>
<rect x="150.204" y="144.743" width="3.44335" height="3.43576" fill="#C3D4FF"/>
<rect x="150.204" y="137.872" width="3.44335" height="3.43576" fill="#C3D4FF"/>
<rect x="260.382" y="144.743" width="3.44335" height="3.43576" fill="#C3D4FF"/>
<rect x="260.382" y="137.872" width="3.44335" height="3.43576" fill="#C3D4FF"/>
<rect x="146.761" y="148.179" width="10.3292" height="3.43576" fill="#C3D4FF"/>
<rect x="256.938" y="148.179" width="10.3292" height="3.43576" fill="#C3D4FF"/>
<rect x="157.09" y="144.743" width="3.44335" height="3.43576" fill="#C3D4FF"/>
<rect x="157.09" y="137.872" width="3.44335" height="3.43576" fill="#C3D4FF"/>
<rect x="157.09" y="131" width="3.44335" height="3.43576" fill="#C3D4FF"/>
<rect x="136.432" y="144.743" width="3.44335" height="3.43576" fill="#C3D4FF"/>
<rect x="136.432" y="137.872" width="3.44335" height="3.43576" fill="#C3D4FF"/>
<rect x="246.609" y="144.743" width="3.44335" height="3.43576" fill="#C3D4FF"/>
<rect x="246.609" y="137.872" width="3.44335" height="3.43576" fill="#C3D4FF"/>
<rect x="132.988" y="148.179" width="10.3292" height="3.43576" fill="#C3D4FF"/>
<rect x="243.167" y="148.179" width="10.3292" height="3.43576" fill="#C3D4FF"/>
<rect x="-170" y="151.615" width="437.268" height="111.089" fill="#C3D4FF"/>
<rect x="267.027" y="144.743" width="3.44335" height="3.43576" fill="#C3D4FF"/>
<rect x="267.027" y="137.872" width="3.44335" height="3.43576" fill="#C3D4FF"/>
<rect x="267.027" y="131" width="3.44335" height="3.43576" fill="#C3D4FF"/>
<rect x="263.583" y="141.307" width="3.44335" height="3.43576" fill="#C3D4FF"/>
<rect x="263.583" y="134.436" width="3.44335" height="3.43576" fill="#C3D4FF"/>
<rect x="270.47" y="141.307" width="3.44335" height="3.43576" fill="#C3D4FF"/>
<rect x="270.47" y="134.436" width="3.44335" height="3.43576" fill="#C3D4FF"/>
<rect x="277.356" y="141.307" width="3.44335" height="3.43576" fill="#C3D4FF"/>
<rect x="277.356" y="134.436" width="3.44335" height="3.43576" fill="#C3D4FF"/>
<rect x="284.242" y="141.307" width="3.44335" height="3.43576" fill="#C3D4FF"/>
<rect x="284.242" y="134.436" width="3.44335" height="3.43576" fill="#C3D4FF"/>
<rect x="291.128" y="141.307" width="3.44335" height="3.43576" fill="#C3D4FF"/>
<rect x="291.128" y="134.436" width="3.44335" height="3.43576" fill="#C3D4FF"/>
<rect x="298.014" y="141.307" width="3.44335" height="3.43576" fill="#C3D4FF"/>
<rect x="298.014" y="134.436" width="3.44335" height="3.43576" fill="#C3D4FF"/>
<rect x="304.9" y="141.307" width="3.44335" height="3.43576" fill="#C3D4FF"/>
<rect x="304.9" y="134.436" width="3.44335" height="3.43576" fill="#C3D4FF"/>
<rect x="311.786" y="141.307" width="3.44335" height="3.43576" fill="#C3D4FF"/>
<rect x="311.786" y="134.436" width="3.44335" height="3.43576" fill="#C3D4FF"/>
<rect x="318.673" y="141.307" width="3.44335" height="3.43576" fill="#C3D4FF"/>
<rect x="318.673" y="134.436" width="3.44335" height="3.43576" fill="#C3D4FF"/>
<rect x="325.559" y="141.307" width="3.44335" height="3.43576" fill="#C3D4FF"/>
<rect x="325.559" y="134.436" width="3.44335" height="3.43576" fill="#C3D4FF"/>
<rect x="332.445" y="141.307" width="3.44335" height="3.43576" fill="#C3D4FF"/>
<rect x="332.445" y="134.436" width="3.44335" height="3.43576" fill="#C3D4FF"/>
<rect x="339.331" y="141.307" width="3.44335" height="3.43576" fill="#C3D4FF"/>
<rect x="339.331" y="134.436" width="3.44335" height="3.43576" fill="#C3D4FF"/>
<rect x="346.217" y="141.307" width="3.44335" height="3.43576" fill="#C3D4FF"/>
<rect x="346.217" y="134.436" width="3.44335" height="3.43576" fill="#C3D4FF"/>
<rect x="353.103" y="141.307" width="3.44335" height="3.43576" fill="#C3D4FF"/>
<rect x="353.103" y="134.436" width="3.44335" height="3.43576" fill="#C3D4FF"/>
<rect x="359.99" y="141.307" width="3.44335" height="3.43576" fill="#C3D4FF"/>
<rect x="359.99" y="134.436" width="3.44335" height="3.43576" fill="#C3D4FF"/>
<rect x="273.913" y="144.743" width="3.44335" height="3.43576" fill="#C3D4FF"/>
<rect x="273.913" y="137.872" width="3.44335" height="3.43576" fill="#C3D4FF"/>
<rect x="270.47" y="148.179" width="10.3292" height="3.43576" fill="#C3D4FF"/>
<rect x="280.799" y="144.743" width="3.44335" height="3.43576" fill="#C3D4FF"/>
<rect x="280.799" y="137.872" width="3.44335" height="3.43576" fill="#C3D4FF"/>
<rect x="280.799" y="131" width="3.44335" height="3.43576" fill="#C3D4FF"/>
<rect x="260.141" y="144.743" width="3.44335" height="3.43576" fill="#C3D4FF"/>
<rect x="260.141" y="137.872" width="3.44335" height="3.43576" fill="#C3D4FF"/>
<rect x="256.698" y="148.179" width="10.3292" height="3.43576" fill="#C3D4FF"/>
<rect x="294.572" y="144.743" width="3.44335" height="3.43576" fill="#C3D4FF"/>
<rect x="294.572" y="137.872" width="3.44335" height="3.43576" fill="#C3D4FF"/>
<rect x="294.572" y="131" width="3.44335" height="3.43576" fill="#C3D4FF"/>
<rect x="301.457" y="144.743" width="3.44335" height="3.43576" fill="#C3D4FF"/>
<rect x="301.457" y="137.872" width="3.44335" height="3.43576" fill="#C3D4FF"/>
<rect x="298.014" y="148.179" width="10.3292" height="3.43576" fill="#C3D4FF"/>
<rect x="308.344" y="144.743" width="3.44335" height="3.43576" fill="#C3D4FF"/>
<rect x="308.344" y="137.872" width="3.44335" height="3.43576" fill="#C3D4FF"/>
<rect x="308.344" y="131" width="3.44335" height="3.43576" fill="#C3D4FF"/>
<rect x="287.685" y="144.743" width="3.44335" height="3.43576" fill="#C3D4FF"/>
<rect x="287.685" y="137.872" width="3.44335" height="3.43576" fill="#C3D4FF"/>
<rect x="284.242" y="148.179" width="10.3292" height="3.43576" fill="#C3D4FF"/>
<rect x="322.116" y="144.743" width="3.44335" height="3.43576" fill="#C3D4FF"/>
<rect x="322.116" y="137.872" width="3.44335" height="3.43576" fill="#C3D4FF"/>
<rect x="322.116" y="131" width="3.44335" height="3.43576" fill="#C3D4FF"/>
<rect x="329.001" y="144.743" width="3.44335" height="3.43576" fill="#C3D4FF"/>
<rect x="329.001" y="137.872" width="3.44335" height="3.43576" fill="#C3D4FF"/>
<rect x="325.559" y="148.179" width="10.3292" height="3.43576" fill="#C3D4FF"/>
<rect x="335.888" y="144.743" width="3.44335" height="3.43576" fill="#C3D4FF"/>
<rect x="335.888" y="137.872" width="3.44335" height="3.43576" fill="#C3D4FF"/>
<rect x="335.888" y="131" width="3.44335" height="3.43576" fill="#C3D4FF"/>
<rect x="315.229" y="144.743" width="3.44335" height="3.43576" fill="#C3D4FF"/>
<rect x="315.229" y="137.872" width="3.44335" height="3.43576" fill="#C3D4FF"/>
<rect x="311.786" y="148.179" width="10.3292" height="3.43576" fill="#C3D4FF"/>
<rect x="349.66" y="144.743" width="3.44335" height="3.43576" fill="#C3D4FF"/>
<rect x="349.66" y="137.872" width="3.44335" height="3.43576" fill="#C3D4FF"/>
<rect x="349.66" y="131" width="3.44335" height="3.43576" fill="#C3D4FF"/>
<rect x="356.546" y="144.743" width="3.44335" height="3.43576" fill="#C3D4FF"/>
<rect x="356.546" y="137.872" width="3.44335" height="3.43576" fill="#C3D4FF"/>
<rect x="353.103" y="148.179" width="10.3292" height="3.43576" fill="#C3D4FF"/>
<rect x="342.774" y="144.743" width="3.44335" height="3.43576" fill="#C3D4FF"/>
<rect x="342.774" y="137.872" width="3.44335" height="3.43576" fill="#C3D4FF"/>
<rect x="339.331" y="148.179" width="10.3292" height="3.43576" fill="#C3D4FF"/>
<rect x="256.698" y="151.615" width="437.268" height="111.089" fill="#C3D4FF"/>
<rect x="267.027" y="218.039" width="3.44335" height="3.43576" fill="#D9E3FF"/>
<rect x="267.027" y="211.168" width="3.44335" height="3.43576" fill="#D9E3FF"/>
<rect x="267.027" y="204.296" width="3.44335" height="3.43576" fill="#D9E3FF"/>
<rect x="263.583" y="214.603" width="3.44335" height="3.43576" fill="#D9E3FF"/>
<rect x="263.583" y="207.731" width="3.44335" height="3.43576" fill="#D9E3FF"/>
<rect x="270.47" y="214.603" width="3.44335" height="3.43576" fill="#D9E3FF"/>
<rect x="270.47" y="207.732" width="3.44335" height="3.43576" fill="#D9E3FF"/>
<rect x="277.356" y="214.603" width="3.44335" height="3.43576" fill="#D9E3FF"/>
<rect x="277.356" y="207.731" width="3.44335" height="3.43576" fill="#D9E3FF"/>
<rect x="284.242" y="214.603" width="3.44335" height="3.43576" fill="#D9E3FF"/>
<rect x="284.242" y="207.732" width="3.44335" height="3.43576" fill="#D9E3FF"/>
<rect x="291.128" y="214.603" width="3.44335" height="3.43576" fill="#D9E3FF"/>
<rect x="291.128" y="207.731" width="3.44335" height="3.43576" fill="#D9E3FF"/>
<rect x="298.014" y="214.603" width="3.44335" height="3.43576" fill="#D9E3FF"/>
<rect x="298.014" y="207.731" width="3.44335" height="3.43576" fill="#D9E3FF"/>
<rect x="304.9" y="214.603" width="3.44335" height="3.43576" fill="#D9E3FF"/>
<rect x="304.9" y="207.732" width="3.44335" height="3.43576" fill="#D9E3FF"/>
<rect x="311.786" y="214.603" width="3.44335" height="3.43576" fill="#D9E3FF"/>
<rect x="311.786" y="207.731" width="3.44335" height="3.43576" fill="#D9E3FF"/>
<rect x="318.673" y="214.603" width="3.44335" height="3.43576" fill="#D9E3FF"/>
<rect x="318.673" y="207.732" width="3.44335" height="3.43576" fill="#D9E3FF"/>
<rect x="325.559" y="214.603" width="3.44335" height="3.43576" fill="#D9E3FF"/>
<rect x="325.559" y="207.731" width="3.44335" height="3.43576" fill="#D9E3FF"/>
<rect x="332.445" y="214.603" width="3.44335" height="3.43576" fill="#D9E3FF"/>
<rect x="332.445" y="207.732" width="3.44335" height="3.43576" fill="#D9E3FF"/>
<rect x="339.331" y="214.603" width="3.44335" height="3.43576" fill="#D9E3FF"/>
<rect x="339.331" y="207.732" width="3.44335" height="3.43576" fill="#D9E3FF"/>
<rect x="346.217" y="214.603" width="3.44335" height="3.43576" fill="#D9E3FF"/>
<rect x="346.217" y="207.731" width="3.44335" height="3.43576" fill="#D9E3FF"/>
<rect x="353.103" y="214.603" width="3.44335" height="3.43576" fill="#D9E3FF"/>
<rect x="353.103" y="207.732" width="3.44335" height="3.43576" fill="#D9E3FF"/>
<rect x="359.99" y="214.603" width="3.44335" height="3.43576" fill="#D9E3FF"/>
<rect x="359.99" y="207.731" width="3.44335" height="3.43576" fill="#D9E3FF"/>
<rect x="273.913" y="218.039" width="3.44335" height="3.43576" fill="#D9E3FF"/>
<rect x="273.913" y="211.168" width="3.44335" height="3.43576" fill="#D9E3FF"/>
<rect x="270.47" y="221.475" width="10.3292" height="3.43576" fill="#D9E3FF"/>
<rect x="280.799" y="218.039" width="3.44335" height="3.43576" fill="#D9E3FF"/>
<rect x="280.799" y="211.168" width="3.44335" height="3.43576" fill="#D9E3FF"/>
<rect x="280.799" y="204.296" width="3.44335" height="3.43576" fill="#D9E3FF"/>
<rect x="260.141" y="218.039" width="3.44335" height="3.43576" fill="#D9E3FF"/>
<rect x="260.141" y="211.168" width="3.44335" height="3.43576" fill="#D9E3FF"/>
<rect x="256.698" y="221.475" width="10.3292" height="3.43576" fill="#D9E3FF"/>
<rect x="294.572" y="218.039" width="3.44335" height="3.43576" fill="#D9E3FF"/>
<rect x="294.572" y="211.168" width="3.44335" height="3.43576" fill="#D9E3FF"/>
<rect x="294.572" y="204.296" width="3.44335" height="3.43576" fill="#D9E3FF"/>
<rect x="301.457" y="218.039" width="3.44335" height="3.43576" fill="#D9E3FF"/>
<rect x="301.457" y="211.168" width="3.44335" height="3.43576" fill="#D9E3FF"/>
<rect x="298.014" y="221.475" width="10.3292" height="3.43576" fill="#D9E3FF"/>
<rect x="308.344" y="218.039" width="3.44335" height="3.43576" fill="#D9E3FF"/>
<rect x="308.344" y="211.168" width="3.44335" height="3.43576" fill="#D9E3FF"/>
<rect x="308.344" y="204.296" width="3.44335" height="3.43576" fill="#D9E3FF"/>
<rect x="287.685" y="218.039" width="3.44335" height="3.43576" fill="#D9E3FF"/>
<rect x="287.685" y="211.168" width="3.44335" height="3.43576" fill="#D9E3FF"/>
<rect x="284.242" y="221.475" width="10.3292" height="3.43576" fill="#D9E3FF"/>
<rect x="322.116" y="218.039" width="3.44335" height="3.43576" fill="#D9E3FF"/>
<rect x="322.116" y="211.168" width="3.44335" height="3.43576" fill="#D9E3FF"/>
<rect x="322.116" y="204.296" width="3.44335" height="3.43576" fill="#D9E3FF"/>
<rect x="329.001" y="218.039" width="3.44335" height="3.43576" fill="#D9E3FF"/>
<rect x="329.001" y="211.168" width="3.44335" height="3.43576" fill="#D9E3FF"/>
<rect x="325.559" y="221.475" width="10.3292" height="3.43576" fill="#D9E3FF"/>
<rect x="335.888" y="218.039" width="3.44335" height="3.43576" fill="#D9E3FF"/>
<rect x="335.888" y="211.168" width="3.44335" height="3.43576" fill="#D9E3FF"/>
<rect x="335.888" y="204.296" width="3.44335" height="3.43576" fill="#D9E3FF"/>
<rect x="315.229" y="218.039" width="3.44335" height="3.43576" fill="#D9E3FF"/>
<rect x="315.229" y="211.168" width="3.44335" height="3.43576" fill="#D9E3FF"/>
<rect x="311.786" y="221.475" width="10.3292" height="3.43576" fill="#D9E3FF"/>
<rect x="349.66" y="218.039" width="3.44335" height="3.43576" fill="#D9E3FF"/>
<rect x="349.66" y="211.168" width="3.44335" height="3.43576" fill="#D9E3FF"/>
<rect x="349.66" y="204.296" width="3.44335" height="3.43576" fill="#D9E3FF"/>
<rect x="356.546" y="218.039" width="3.44335" height="3.43576" fill="#D9E3FF"/>
<rect x="356.546" y="211.168" width="3.44335" height="3.43576" fill="#D9E3FF"/>
<rect x="353.103" y="221.475" width="10.3292" height="3.43576" fill="#D9E3FF"/>
<rect x="342.774" y="218.039" width="3.44335" height="3.43576" fill="#D9E3FF"/>
<rect x="342.774" y="211.168" width="3.44335" height="3.43576" fill="#D9E3FF"/>
<rect x="339.331" y="221.475" width="10.3292" height="3.43576" fill="#D9E3FF"/>
<rect x="256.698" y="224.911" width="437.268" height="111.089" fill="#D9E3FF"/>
<rect x="2.15234" y="214.603" width="3.44335" height="3.43576" fill="#D9E3FF"/>
<rect x="2.15234" y="207.731" width="3.44335" height="3.43576" fill="#D9E3FF"/>
<rect x="9.03882" y="214.603" width="3.44335" height="3.43576" fill="#D9E3FF"/>
<rect x="9.03882" y="207.732" width="3.44335" height="3.43576" fill="#D9E3FF"/>
<rect x="15.9246" y="214.603" width="3.44335" height="3.43576" fill="#D9E3FF"/>
<rect x="15.9246" y="207.731" width="3.44335" height="3.43576" fill="#D9E3FF"/>
<rect x="22.8108" y="214.603" width="3.44335" height="3.43576" fill="#D9E3FF"/>
<rect x="22.8108" y="207.732" width="3.44335" height="3.43576" fill="#D9E3FF"/>
<rect x="29.6973" y="214.603" width="3.44335" height="3.43576" fill="#D9E3FF"/>
<rect x="29.6973" y="207.731" width="3.44335" height="3.43576" fill="#D9E3FF"/>
<rect x="36.583" y="214.603" width="3.44335" height="3.43576" fill="#D9E3FF"/>
<rect x="36.583" y="207.731" width="3.44335" height="3.43576" fill="#D9E3FF"/>
<rect x="43.4692" y="214.603" width="3.44335" height="3.43576" fill="#D9E3FF"/>
<rect x="43.4692" y="207.732" width="3.44335" height="3.43576" fill="#D9E3FF"/>
<rect x="50.355" y="214.603" width="3.44335" height="3.43576" fill="#D9E3FF"/>
<rect x="50.355" y="207.731" width="3.44335" height="3.43576" fill="#D9E3FF"/>
<rect x="57.2415" y="214.603" width="3.44335" height="3.43576" fill="#D9E3FF"/>
<rect x="57.2415" y="207.732" width="3.44335" height="3.43576" fill="#D9E3FF"/>
<rect x="64.1279" y="214.603" width="3.44335" height="3.43576" fill="#D9E3FF"/>
<rect x="64.1279" y="207.731" width="3.44335" height="3.43576" fill="#D9E3FF"/>
<rect x="71.0137" y="214.603" width="3.44335" height="3.43576" fill="#D9E3FF"/>
<rect x="71.0137" y="207.732" width="3.44335" height="3.43576" fill="#D9E3FF"/>
<rect x="77.8999" y="214.603" width="3.44335" height="3.43576" fill="#D9E3FF"/>
<rect x="77.8999" y="207.731" width="3.44335" height="3.43576" fill="#D9E3FF"/>
<rect x="84.7856" y="214.603" width="3.44335" height="3.43576" fill="#D9E3FF"/>
<rect x="84.7856" y="207.731" width="3.44335" height="3.43576" fill="#D9E3FF"/>
<rect x="91.6721" y="214.603" width="3.44335" height="3.43576" fill="#D9E3FF"/>
<rect x="91.6721" y="207.732" width="3.44335" height="3.43576" fill="#D9E3FF"/>
<rect x="98.5579" y="214.603" width="3.44335" height="3.43576" fill="#D9E3FF"/>
<rect x="98.5579" y="207.731" width="3.44335" height="3.43576" fill="#D9E3FF"/>
<rect x="105.444" y="214.603" width="3.44335" height="3.43576" fill="#D9E3FF"/>
<rect x="105.444" y="207.732" width="3.44335" height="3.43576" fill="#D9E3FF"/>
<rect x="112.331" y="214.603" width="3.44335" height="3.43576" fill="#D9E3FF"/>
<rect x="112.331" y="207.731" width="3.44335" height="3.43576" fill="#D9E3FF"/>
<rect x="119.216" y="214.603" width="3.44335" height="3.43576" fill="#D9E3FF"/>
<rect x="119.216" y="207.732" width="3.44335" height="3.43576" fill="#D9E3FF"/>
<rect x="126.103" y="214.603" width="3.44335" height="3.43576" fill="#D9E3FF"/>
<rect x="126.103" y="207.732" width="3.44335" height="3.43576" fill="#D9E3FF"/>
<rect x="132.988" y="214.603" width="3.44335" height="3.43576" fill="#D9E3FF"/>
<rect x="132.988" y="207.731" width="3.44335" height="3.43576" fill="#D9E3FF"/>
<rect x="139.875" y="214.603" width="3.44335" height="3.43576" fill="#D9E3FF"/>
<rect x="139.875" y="207.732" width="3.44335" height="3.43576" fill="#D9E3FF"/>
<rect x="146.761" y="214.603" width="3.44335" height="3.43576" fill="#D9E3FF"/>
<rect x="146.761" y="207.731" width="3.44335" height="3.43576" fill="#D9E3FF"/>
<rect x="153.647" y="214.603" width="3.44335" height="3.43576" fill="#D9E3FF"/>
<rect x="153.647" y="207.732" width="3.44335" height="3.43576" fill="#D9E3FF"/>
<rect x="160.533" y="214.603" width="3.44335" height="3.43576" fill="#D9E3FF"/>
<rect x="160.533" y="207.731" width="3.44335" height="3.43576" fill="#D9E3FF"/>
<rect x="167.419" y="214.603" width="3.44335" height="3.43576" fill="#D9E3FF"/>
<rect x="167.419" y="207.731" width="3.44335" height="3.43576" fill="#D9E3FF"/>
<rect x="174.305" y="214.603" width="3.44335" height="3.43576" fill="#D9E3FF"/>
<rect x="174.305" y="207.732" width="3.44335" height="3.43576" fill="#D9E3FF"/>
<rect x="181.191" y="214.603" width="3.44335" height="3.43576" fill="#D9E3FF"/>
<rect x="181.191" y="207.731" width="3.44335" height="3.43576" fill="#D9E3FF"/>
<rect x="188.078" y="214.603" width="3.44335" height="3.43576" fill="#D9E3FF"/>
<rect x="188.078" y="207.732" width="3.44335" height="3.43576" fill="#D9E3FF"/>
<rect x="194.964" y="214.603" width="3.44335" height="3.43576" fill="#D9E3FF"/>
<rect x="194.964" y="207.731" width="3.44335" height="3.43576" fill="#D9E3FF"/>
<rect x="201.85" y="214.603" width="3.44335" height="3.43576" fill="#D9E3FF"/>
<rect x="201.85" y="207.732" width="3.44335" height="3.43576" fill="#D9E3FF"/>
<rect x="208.736" y="214.603" width="3.44335" height="3.43576" fill="#D9E3FF"/>
<rect x="208.736" y="207.731" width="3.44335" height="3.43576" fill="#D9E3FF"/>
<rect x="215.622" y="214.603" width="3.44335" height="3.43576" fill="#D9E3FF"/>
<rect x="215.622" y="207.731" width="3.44335" height="3.43576" fill="#D9E3FF"/>
<rect x="222.508" y="214.603" width="3.44335" height="3.43576" fill="#D9E3FF"/>
<rect x="222.508" y="207.732" width="3.44335" height="3.43576" fill="#D9E3FF"/>
<rect x="229.395" y="214.603" width="3.44335" height="3.43576" fill="#D9E3FF"/>
<rect x="229.395" y="207.731" width="3.44335" height="3.43576" fill="#D9E3FF"/>
<rect x="236.28" y="214.603" width="3.44335" height="3.43576" fill="#D9E3FF"/>
<rect x="236.28" y="207.732" width="3.44335" height="3.43576" fill="#D9E3FF"/>
<rect x="243.167" y="214.603" width="3.44335" height="3.43576" fill="#D9E3FF"/>
<rect x="243.167" y="207.731" width="3.44335" height="3.43576" fill="#D9E3FF"/>
<rect x="250.052" y="214.603" width="3.44335" height="3.43576" fill="#D9E3FF"/>
<rect x="250.052" y="207.731" width="3.44335" height="3.43576" fill="#D9E3FF"/>
<rect x="256.939" y="214.603" width="3.44335" height="3.43576" fill="#D9E3FF"/>
<rect x="256.939" y="207.732" width="3.44335" height="3.43576" fill="#D9E3FF"/>
<rect x="5.5957" y="218.039" width="3.44335" height="3.43576" fill="#D9E3FF"/>
<rect x="5.59546" y="211.168" width="3.44335" height="3.43576" fill="#D9E3FF"/>
<rect x="5.5957" y="204.296" width="3.44335" height="3.43576" fill="#D9E3FF"/>
<rect x="12.4819" y="218.039" width="3.44335" height="3.43576" fill="#D9E3FF"/>
<rect x="12.4819" y="211.168" width="3.44335" height="3.43576" fill="#D9E3FF"/>
<rect x="9.03857" y="221.475" width="10.3292" height="3.43576" fill="#D9E3FF"/>
<rect x="19.3677" y="218.039" width="3.44335" height="3.43576" fill="#D9E3FF"/>
<rect x="19.3677" y="211.168" width="3.44335" height="3.43576" fill="#D9E3FF"/>
<rect x="19.3677" y="204.296" width="3.44335" height="3.43576" fill="#D9E3FF"/>
<rect x="-1.29004" y="218.039" width="3.44335" height="3.43576" fill="#D9E3FF"/>
<rect x="-1.29004" y="211.168" width="3.44335" height="3.43576" fill="#D9E3FF"/>
<rect x="-4.7334" y="221.475" width="10.3292" height="3.43576" fill="#D9E3FF"/>
<rect x="33.1396" y="218.039" width="3.44335" height="3.43576" fill="#D9E3FF"/>
<rect x="33.1396" y="211.168" width="3.44335" height="3.43576" fill="#D9E3FF"/>
<rect x="33.1399" y="204.296" width="3.44335" height="3.43576" fill="#D9E3FF"/>
<rect x="40.0261" y="218.039" width="3.44335" height="3.43576" fill="#D9E3FF"/>
<rect x="40.0261" y="211.168" width="3.44335" height="3.43576" fill="#D9E3FF"/>
<rect x="36.583" y="221.475" width="10.3292" height="3.43576" fill="#D9E3FF"/>
<rect x="46.9126" y="218.039" width="3.44335" height="3.43576" fill="#D9E3FF"/>
<rect x="46.9126" y="211.168" width="3.44335" height="3.43576" fill="#D9E3FF"/>
<rect x="46.9126" y="204.296" width="3.44335" height="3.43576" fill="#D9E3FF"/>
<rect x="26.2539" y="218.039" width="3.44335" height="3.43576" fill="#D9E3FF"/>
<rect x="26.2542" y="211.168" width="3.44335" height="3.43576" fill="#D9E3FF"/>
<rect x="22.8108" y="221.475" width="10.3292" height="3.43576" fill="#D9E3FF"/>
<rect x="60.6846" y="218.039" width="3.44335" height="3.43576" fill="#D9E3FF"/>
<rect x="60.6846" y="211.168" width="3.44335" height="3.43576" fill="#D9E3FF"/>
<rect x="60.6846" y="204.296" width="3.44335" height="3.43576" fill="#D9E3FF"/>
<rect x="170.862" y="218.039" width="3.44335" height="3.43576" fill="#D9E3FF"/>
<rect x="170.862" y="211.168" width="3.44335" height="3.43576" fill="#D9E3FF"/>
<rect x="170.862" y="204.296" width="3.44335" height="3.43576" fill="#D9E3FF"/>
<rect x="67.5703" y="218.039" width="3.44335" height="3.43576" fill="#D9E3FF"/>
<rect x="67.5703" y="211.168" width="3.44335" height="3.43576" fill="#D9E3FF"/>
<rect x="177.749" y="218.039" width="3.44335" height="3.43576" fill="#D9E3FF"/>
<rect x="177.749" y="211.168" width="3.44335" height="3.43576" fill="#D9E3FF"/>
<rect x="64.1279" y="221.475" width="10.3292" height="3.43576" fill="#D9E3FF"/>
<rect x="174.305" y="221.475" width="10.3292" height="3.43576" fill="#D9E3FF"/>
<rect x="74.4568" y="218.039" width="3.44335" height="3.43576" fill="#D9E3FF"/>
<rect x="74.4568" y="211.168" width="3.44335" height="3.43576" fill="#D9E3FF"/>
<rect x="74.4568" y="204.296" width="3.44335" height="3.43576" fill="#D9E3FF"/>
<rect x="184.635" y="218.039" width="3.44335" height="3.43576" fill="#D9E3FF"/>
<rect x="184.634" y="211.168" width="3.44335" height="3.43576" fill="#D9E3FF"/>
<rect x="184.635" y="204.296" width="3.44335" height="3.43576" fill="#D9E3FF"/>
<rect x="53.7983" y="218.039" width="3.44335" height="3.43576" fill="#D9E3FF"/>
<rect x="53.7983" y="211.168" width="3.44335" height="3.43576" fill="#D9E3FF"/>
<rect x="163.976" y="218.039" width="3.44335" height="3.43576" fill="#D9E3FF"/>
<rect x="163.976" y="211.168" width="3.44335" height="3.43576" fill="#D9E3FF"/>
<rect x="50.355" y="221.475" width="10.3292" height="3.43576" fill="#D9E3FF"/>
<rect x="160.533" y="221.475" width="10.3292" height="3.43576" fill="#D9E3FF"/>
<rect x="88.229" y="218.039" width="3.44335" height="3.43576" fill="#D9E3FF"/>
<rect x="88.229" y="211.168" width="3.44335" height="3.43576" fill="#D9E3FF"/>
<rect x="88.229" y="204.296" width="3.44335" height="3.43576" fill="#D9E3FF"/>
<rect x="198.406" y="218.039" width="3.44335" height="3.43576" fill="#D9E3FF"/>
<rect x="198.406" y="211.168" width="3.44335" height="3.43576" fill="#D9E3FF"/>
<rect x="198.406" y="204.296" width="3.44335" height="3.43576" fill="#D9E3FF"/>
<rect x="95.1152" y="218.039" width="3.44335" height="3.43576" fill="#D9E3FF"/>
<rect x="95.1152" y="211.168" width="3.44335" height="3.43576" fill="#D9E3FF"/>
<rect x="205.293" y="218.039" width="3.44335" height="3.43576" fill="#D9E3FF"/>
<rect x="205.293" y="211.168" width="3.44335" height="3.43576" fill="#D9E3FF"/>
<rect x="91.6719" y="221.475" width="10.3292" height="3.43576" fill="#D9E3FF"/>
<rect x="201.85" y="221.475" width="10.3292" height="3.43576" fill="#D9E3FF"/>
<rect x="102.001" y="218.039" width="3.44335" height="3.43576" fill="#D9E3FF"/>
<rect x="102.001" y="211.168" width="3.44335" height="3.43576" fill="#D9E3FF"/>
<rect x="102.001" y="204.296" width="3.44335" height="3.43576" fill="#D9E3FF"/>
<rect x="212.179" y="218.039" width="3.44335" height="3.43576" fill="#D9E3FF"/>
<rect x="212.179" y="211.168" width="3.44335" height="3.43576" fill="#D9E3FF"/>
<rect x="212.179" y="204.296" width="3.44335" height="3.43576" fill="#D9E3FF"/>
<rect x="81.3433" y="218.039" width="3.44335" height="3.43576" fill="#D9E3FF"/>
<rect x="81.3433" y="211.168" width="3.44335" height="3.43576" fill="#D9E3FF"/>
<rect x="191.521" y="218.039" width="3.44335" height="3.43576" fill="#D9E3FF"/>
<rect x="191.521" y="211.168" width="3.44335" height="3.43576" fill="#D9E3FF"/>
<rect x="77.8999" y="221.475" width="10.3292" height="3.43576" fill="#D9E3FF"/>
<rect x="188.078" y="221.475" width="10.3292" height="3.43576" fill="#D9E3FF"/>
<rect x="115.773" y="218.039" width="3.44335" height="3.43576" fill="#D9E3FF"/>
<rect x="115.773" y="211.168" width="3.44335" height="3.43576" fill="#D9E3FF"/>
<rect x="115.773" y="204.296" width="3.44335" height="3.43576" fill="#D9E3FF"/>
<rect x="225.951" y="218.039" width="3.44335" height="3.43576" fill="#D9E3FF"/>
<rect x="225.951" y="211.168" width="3.44335" height="3.43576" fill="#D9E3FF"/>
<rect x="225.951" y="204.296" width="3.44335" height="3.43576" fill="#D9E3FF"/>
<rect x="122.659" y="218.039" width="3.44335" height="3.43576" fill="#D9E3FF"/>
<rect x="122.659" y="211.168" width="3.44335" height="3.43576" fill="#D9E3FF"/>
<rect x="232.837" y="218.039" width="3.44335" height="3.43576" fill="#D9E3FF"/>
<rect x="232.837" y="211.168" width="3.44335" height="3.43576" fill="#D9E3FF"/>
<rect x="119.216" y="221.475" width="10.3292" height="3.43576" fill="#D9E3FF"/>
<rect x="229.395" y="221.475" width="10.3292" height="3.43576" fill="#D9E3FF"/>
<rect x="129.546" y="218.039" width="3.44335" height="3.43576" fill="#D9E3FF"/>
<rect x="129.546" y="211.168" width="3.44335" height="3.43576" fill="#D9E3FF"/>
<rect x="129.546" y="204.296" width="3.44335" height="3.43576" fill="#D9E3FF"/>
<rect x="239.723" y="218.039" width="3.44335" height="3.43576" fill="#D9E3FF"/>
<rect x="239.723" y="211.168" width="3.44335" height="3.43576" fill="#D9E3FF"/>
<rect x="239.723" y="204.296" width="3.44335" height="3.43576" fill="#D9E3FF"/>
<rect x="108.887" y="218.039" width="3.44335" height="3.43576" fill="#D9E3FF"/>
<rect x="108.887" y="211.168" width="3.44335" height="3.43576" fill="#D9E3FF"/>
<rect x="219.065" y="218.039" width="3.44335" height="3.43576" fill="#D9E3FF"/>
<rect x="219.065" y="211.168" width="3.44335" height="3.43576" fill="#D9E3FF"/>
<rect x="105.444" y="221.475" width="10.3292" height="3.43576" fill="#D9E3FF"/>
<rect x="215.622" y="221.475" width="10.3292" height="3.43576" fill="#D9E3FF"/>
<rect x="143.318" y="218.039" width="3.44335" height="3.43576" fill="#D9E3FF"/>
<rect x="143.318" y="211.168" width="3.44335" height="3.43576" fill="#D9E3FF"/>
<rect x="143.318" y="204.296" width="3.44335" height="3.43576" fill="#D9E3FF"/>
<rect x="253.496" y="218.039" width="3.44335" height="3.43576" fill="#D9E3FF"/>
<rect x="253.496" y="211.168" width="3.44335" height="3.43576" fill="#D9E3FF"/>
<rect x="253.496" y="204.296" width="3.44335" height="3.43576" fill="#D9E3FF"/>
<rect x="150.204" y="218.039" width="3.44335" height="3.43576" fill="#D9E3FF"/>
<rect x="150.204" y="211.168" width="3.44335" height="3.43576" fill="#D9E3FF"/>
<rect x="260.382" y="218.039" width="3.44335" height="3.43576" fill="#D9E3FF"/>
<rect x="260.382" y="211.168" width="3.44335" height="3.43576" fill="#D9E3FF"/>
<rect x="146.761" y="221.475" width="10.3292" height="3.43576" fill="#D9E3FF"/>
<rect x="256.938" y="221.475" width="10.3292" height="3.43576" fill="#D9E3FF"/>
<rect x="157.09" y="218.039" width="3.44335" height="3.43576" fill="#D9E3FF"/>
<rect x="157.09" y="211.168" width="3.44335" height="3.43576" fill="#D9E3FF"/>
<rect x="157.09" y="204.296" width="3.44335" height="3.43576" fill="#D9E3FF"/>
<rect x="136.432" y="218.039" width="3.44335" height="3.43576" fill="#D9E3FF"/>
<rect x="136.432" y="211.168" width="3.44335" height="3.43576" fill="#D9E3FF"/>
<rect x="246.609" y="218.039" width="3.44335" height="3.43576" fill="#D9E3FF"/>
<rect x="246.609" y="211.168" width="3.44335" height="3.43576" fill="#D9E3FF"/>
<rect x="132.988" y="221.475" width="10.3292" height="3.43576" fill="#D9E3FF"/>
<rect x="243.167" y="221.475" width="10.3292" height="3.43576" fill="#D9E3FF"/>
<rect x="-170" y="224.911" width="437.268" height="111.089" fill="#D9E3FF"/>
<rect x="-23.2729" y="91" width="87.9545" height="15.6818" fill="white"/>
<rect x="-22.5911" y="106.682" width="130.909" height="6.81818" fill="white"/>
<rect width="34.7727" height="7.5" transform="matrix(-1 0 0 1 8.77271 113.5)" fill="#FFECC6"/>
<rect width="51" height="23" transform="matrix(-1 0 0 1 339 159)" fill="white"/>
<rect width="133" height="11" transform="matrix(-1 0 0 1 401 178)" fill="white"/>
<rect width="31" height="7" transform="matrix(-1 0 0 1 370 171)" fill="#FFECC6"/>
<rect width="20" height="7" transform="matrix(-1 0 0 1 308 182)" fill="#FFECC6"/>
</g>
<defs>
<clipPath id="clip0_554_2648">
<rect width="360" height="272" fill="white"/>
</clipPath>
</defs>
</svg>
